HIERARCHY
ROOT mixamorig:Hips
{
	OFFSET 0.000000 201.639420 0.000000
	CHANNELS 6 Xposition Yposition Zposition Xrotation Yrotation Zrotation
	JOINT mixamorig:Spine
	{
		OFFSET 0.006200 19.524994 -2.481800
		CHANNELS 3 Xrotation Yrotation Zrotation
		JOINT mixamorig:Spine1
		{
			OFFSET -0.000900 22.835007 -2.825400
			CHANNELS 3 Xrotation Yrotation Zrotation
			JOINT mixamorig:Spine2
			{
				OFFSET -0.020600 26.552490 -3.193300
				CHANNELS 3 Xrotation Yrotation Zrotation
				JOINT mixamorig:Neck
				{
					OFFSET -0.060000 30.701813 1.352200
					CHANNELS 3 Xrotation Yrotation Zrotation
					JOINT mixamorig:Head
					{
						OFFSET -0.087200 22.547607 3.670900
						CHANNELS 3 Xrotation Yrotation Zrotation
						JOINT mixamorig:HeadTop_End
						{
							OFFSET -0.830600 40.355194 7.893500
							CHANNELS 3 Xrotation Yrotation Zrotation
							End Site
							{
								OFFSET 0.000000 30.592346 0.000000
							}
						}
						JOINT mixamorig:RightEye
						{
							OFFSET -6.302100 18.118591 16.197100
							CHANNELS 3 Xrotation Yrotation Zrotation
							End Site
							{
								OFFSET 0.000000 30.592346 0.000000
							}
						}
						JOINT mixamorig:LeftEye
						{
							OFFSET 6.741500 18.382690 16.401899
							CHANNELS 3 Xrotation Yrotation Zrotation
							End Site
							{
								OFFSET 0.000000 30.592346 0.000000
							}
						}
					}
				}
				JOINT mixamorig:LeftShoulder
				{
					OFFSET 11.924900 18.230499 1.425400
					CHANNELS 3 Xrotation Yrotation Zrotation
					JOINT mixamorig:LeftArm
					{
						OFFSET 25.435989 -0.697632 -5.229300
						CHANNELS 3 Xrotation Yrotation Zrotation
						JOINT mixamorig:LeftForeArm
						{
							OFFSET 54.684776 0.000000 0.000000
							CHANNELS 3 Xrotation Yrotation Zrotation
							JOINT mixamorig:LeftHand
							{
								OFFSET 55.098175 0.000000 0.000000
								CHANNELS 3 Xrotation Yrotation Zrotation
								JOINT mixamorig:LeftHandMiddle1
								{
									OFFSET 23.369751 0.000000 0.000000
									CHANNELS 3 Xrotation Yrotation Zrotation
									JOINT mixamorig:LeftHandMiddle2
									{
										OFFSET 6.378677 0.000000 0.000000
										CHANNELS 3 Xrotation Yrotation Zrotation
										JOINT mixamorig:LeftHandMiddle3
										{
											OFFSET 6.148331 0.000000 0.000000
											CHANNELS 3 Xrotation Yrotation Zrotation
											JOINT mixamorig:LeftHandMiddle4
											{
												OFFSET 6.582504 0.000000 0.000000
												CHANNELS 3 Xrotation Yrotation Zrotation
												End Site
												{
													OFFSET -1.168900 6.395691 1.028606
												}
											}
										}
									}
								}
								JOINT mixamorig:LeftHandThumb1
								{
									OFFSET 7.235672 -3.848206 5.434273
									CHANNELS 3 Xrotation Yrotation Zrotation
									JOINT mixamorig:LeftHandThumb2
									{
										OFFSET 6.568451 -3.792297 3.792300
										CHANNELS 3 Xrotation Yrotation Zrotation
										JOINT mixamorig:LeftHandThumb3
										{
											OFFSET 6.063080 -3.500519 3.500518
											CHANNELS 3 Xrotation Yrotation Zrotation
											JOINT mixamorig:LeftHandThumb4
											{
												OFFSET 4.793182 -2.767334 2.767349
												CHANNELS 3 Xrotation Yrotation Zrotation
												End Site
												{
													OFFSET 0.101639 6.054260 1.275483
												}
											}
										}
									}
								}
								JOINT mixamorig:LeftHandIndex1
								{
									OFFSET 23.101074 -0.309540 4.992809
									CHANNELS 3 Xrotation Yrotation Zrotation
									JOINT mixamorig:LeftHandIndex2
									{
										OFFSET 6.226883 0.000000 0.000000
										CHANNELS 3 Xrotation Yrotation Zrotation
										JOINT mixamorig:LeftHandIndex3
										{
											OFFSET 6.094330 0.000000 0.000000
											CHANNELS 3 Xrotation Yrotation Zrotation
											JOINT mixamorig:LeftHandIndex4
											{
												OFFSET 5.482605 0.000000 0.000000
												CHANNELS 3 Xrotation Yrotation Zrotation
												End Site
												{
													OFFSET -1.427902 5.233032 0.797164
												}
											}
										}
									}
								}
								JOINT mixamorig:LeftHandRing1
								{
									OFFSET 22.299240 0.021149 -3.964172
									CHANNELS 3 Xrotation Yrotation Zrotation
									JOINT mixamorig:LeftHandRing2
									{
										OFFSET 6.321869 0.000000 0.000000
										CHANNELS 3 Xrotation Yrotation Zrotation
										JOINT mixamorig:LeftHandRing3
										{
											OFFSET 5.899796 0.000000 0.000000
											CHANNELS 3 Xrotation Yrotation Zrotation
											JOINT mixamorig:LeftHandRing4
											{
												OFFSET 6.517899 0.000000 0.000000
												CHANNELS 3 Xrotation Yrotation Zrotation
												End Site
												{
													OFFSET -1.637299 6.232208 0.980890
												}
											}
										}
									}
								}
								JOINT mixamorig:LeftHandPinky1
								{
									OFFSET 20.463791 -0.302338 -8.562233
									CHANNELS 3 Xrotation Yrotation Zrotation
									JOINT mixamorig:LeftHandPinky2
									{
										OFFSET 6.908646 0.000000 0.000000
										CHANNELS 3 Xrotation Yrotation Zrotation
										JOINT mixamorig:LeftHandPinky3
										{
											OFFSET 4.622849 0.000000 0.000000
											CHANNELS 3 Xrotation Yrotation Zrotation
											JOINT mixamorig:LeftHandPinky4
											{
												OFFSET 5.216080 0.000000 0.000000
												CHANNELS 3 Xrotation Yrotation Zrotation
												End Site
												{
													OFFSET -0.606308 5.116241 0.814926
												}
											}
										}
									}
								}
							}
						}
					}
				}
				JOINT mixamorig:RightShoulder
				{
					OFFSET -12.001300 18.284088 1.348900
					CHANNELS 3 Xrotation Yrotation Zrotation
					JOINT mixamorig:RightArm
					{
						OFFSET -25.308500 -0.751312 -5.164599
						CHANNELS 3 Xrotation Yrotation Zrotation
						JOINT mixamorig:RightForeArm
						{
							OFFSET -54.684429 0.000000 0.000000
							CHANNELS 3 Xrotation Yrotation Zrotation
							JOINT mixamorig:RightHand
							{
								OFFSET -55.150291 0.000000 0.000000
								CHANNELS 3 Xrotation Yrotation Zrotation
								JOINT mixamorig:RightHandMiddle1
								{
									OFFSET -23.317566 0.000000 0.000000
									CHANNELS 3 Xrotation Yrotation Zrotation
									JOINT mixamorig:RightHandMiddle2
									{
										OFFSET -6.378403 0.000000 0.000000
										CHANNELS 3 Xrotation Yrotation Zrotation
										JOINT mixamorig:RightHandMiddle3
										{
											OFFSET -6.148193 0.000000 0.000000
											CHANNELS 3 Xrotation Yrotation Zrotation
											JOINT mixamorig:RightHandMiddle4
											{
												OFFSET -6.583389 0.000000 0.000000
												CHANNELS 3 Xrotation Yrotation Zrotation
												End Site
												{
													OFFSET 1.171692 6.395905 1.029786
												}
											}
										}
									}
								}
								JOINT mixamorig:RightHandThumb1
								{
									OFFSET -7.190521 -3.860474 5.435846
									CHANNELS 3 Xrotation Yrotation Zrotation
									JOINT mixamorig:RightHandThumb2
									{
										OFFSET -6.567429 -3.791718 3.791708
										CHANNELS 3 Xrotation Yrotation Zrotation
										JOINT mixamorig:RightHandThumb3
										{
											OFFSET -6.062469 -3.500153 3.500166
											CHANNELS 3 Xrotation Yrotation Zrotation
											JOINT mixamorig:RightHandThumb4
											{
												OFFSET -4.792618 -2.767029 2.767022
												CHANNELS 3 Xrotation Yrotation Zrotation
												End Site
												{
													OFFSET -0.100327 6.053253 1.276754
												}
											}
										}
									}
								}
								JOINT mixamorig:RightHandIndex1
								{
									OFFSET -23.048981 -0.310791 4.992554
									CHANNELS 3 Xrotation Yrotation Zrotation
									JOINT mixamorig:RightHandIndex2
									{
										OFFSET -6.227539 0.000000 0.000000
										CHANNELS 3 Xrotation Yrotation Zrotation
										JOINT mixamorig:RightHandIndex3
										{
											OFFSET -6.095047 0.000000 0.000000
											CHANNELS 3 Xrotation Yrotation Zrotation
											JOINT mixamorig:RightHandIndex4
											{
												OFFSET -5.484772 0.000000 0.000000
												CHANNELS 3 Xrotation Yrotation Zrotation
												End Site
												{
													OFFSET 1.420593 5.237305 0.797056
												}
											}
										}
									}
								}
								JOINT mixamorig:RightHandRing1
								{
									OFFSET -22.246323 0.020569 -3.963762
									CHANNELS 3 Xrotation Yrotation Zrotation
									JOINT mixamorig:RightHandRing2
									{
										OFFSET -6.322128 0.000000 0.000000
										CHANNELS 3 Xrotation Yrotation Zrotation
										JOINT mixamorig:RightHandRing3
										{
											OFFSET -5.900024 0.000000 0.000000
											CHANNELS 3 Xrotation Yrotation Zrotation
											JOINT mixamorig:RightHandRing4
											{
												OFFSET -6.518356 0.000000 0.000000
												CHANNELS 3 Xrotation Yrotation Zrotation
												End Site
												{
													OFFSET 1.636398 6.232697 0.982186
												}
											}
										}
									}
								}
								JOINT mixamorig:RightHandPinky1
								{
									OFFSET -20.411011 -0.303314 -8.561701
									CHANNELS 3 Xrotation Yrotation Zrotation
									JOINT mixamorig:RightHandPinky2
									{
										OFFSET -6.907349 0.000000 0.000000
										CHANNELS 3 Xrotation Yrotation Zrotation
										JOINT mixamorig:RightHandPinky3
										{
											OFFSET -4.623840 0.000000 0.000000
											CHANNELS 3 Xrotation Yrotation Zrotation
											JOINT mixamorig:RightHandPinky4
											{
												OFFSET -5.218353 0.000000 0.000000
												CHANNELS 3 Xrotation Yrotation Zrotation
												End Site
												{
													OFFSET 0.602097 5.118835 0.816273
												}
											}
										}
									}
								}
							}
						}
					}
				}
			}
		}
	}
	JOINT mixamorig:LeftUpLeg
	{
		OFFSET 18.168400 -13.561905 -0.039000
		CHANNELS 3 Xrotation Yrotation Zrotation
		JOINT mixamorig:LeftLeg
		{
			OFFSET 0.577358 -80.825211 -3.695000
			CHANNELS 3 Xrotation Yrotation Zrotation
			JOINT mixamorig:LeftFoot
			{
				OFFSET -0.577356 -83.370262 -6.520700
				CHANNELS 3 Xrotation Yrotation Zrotation
				JOINT mixamorig:LeftToeBase
				{
					OFFSET 0.750401 -20.798306 25.135401
					CHANNELS 3 Xrotation Yrotation Zrotation
					JOINT mixamorig:LeftToe_End
					{
						OFFSET -0.000500 0.001200 19.917799
						CHANNELS 3 Xrotation Yrotation Zrotation
						End Site
						{
							OFFSET 0.000000 19.917805 0.000000
						}
					}
				}
			}
		}
	}
	JOINT mixamorig:RightUpLeg
	{
		OFFSET -18.162500 -13.585098 -0.041000
		CHANNELS 3 Xrotation Yrotation Zrotation
		JOINT mixamorig:RightLeg
		{
			OFFSET -0.595024 -80.945297 -3.631900
			CHANNELS 3 Xrotation Yrotation Zrotation
			JOINT mixamorig:RightFoot
			{
				OFFSET 0.595024 -83.218193 -6.561200
				CHANNELS 3 Xrotation Yrotation Zrotation
				JOINT mixamorig:RightToeBase
				{
					OFFSET -0.753601 -20.807106 25.115000
					CHANNELS 3 Xrotation Yrotation Zrotation
					JOINT mixamorig:RightToe_End
					{
						OFFSET 0.000299 0.001700 19.918200
						CHANNELS 3 Xrotation Yrotation Zrotation
						End Site
						{
							OFFSET 0.000000 19.918203 0.000000
						}
					}
				}
			}
		}
	}
}
MOTION
Frames: 4
Frame Time: 0.033333
9.724717 179.683563 -20.036961 -20.798030 -32.889570 -8.286534 33.970007 -1.451261 6.029784 12.772017 0.451674 3.531554 13.134855 -0.178962 2.869245 11.082573 2.052635 -5.799047 30.244242 4.233429 -13.132895 0.000002 0.000000 -0.000002 0.000002 0.000000 -0.000002 0.000002 0.000000 -0.000002 1.563561 -18.060916 -11.272288 -60.438630 -26.337600 -47.170068 0.000001 -150.000025 -0.000004 2.328619 7.505777 31.727649 -0.000001 -0.001927 0.015985 1.149041 3.813382 -33.526438 0.292817 1.990308 -16.736089 0.000001 0.000001 0.000001 -1.540047 3.690182 6.142350 6.376468 41.437146 2.832542 0.814544 18.278747 4.051078 0.000003 0.000001 -0.000004 -0.022936 -4.659850 -0.563599 1.147977 3.811750 -33.510418 0.292790 1.990312 -16.736089 -0.000002 0.000000 -0.000003 -0.000002 -0.000001 0.000005 1.147971 3.811789 -33.510383 0.292819 1.990306 -16.736089 0.000002 0.000001 -0.000002 -0.113269 10.266724 1.273584 1.161296 -0.252011 -33.938920 0.292802 1.990324 -16.736108 -0.000001 -0.000002 -0.000003 15.665631 32.376084 -19.293073 -67.460617 22.713345 36.705331 0.000002 150.000038 -0.000017 -9.781573 -28.561396 -39.071045 0.000003 -0.000007 0.000009 0.463734 -2.501206 21.004230 0.116838 -1.271885 10.497047 0.000001 0.000000 -0.000003 -21.412826 13.453909 -6.360305 6.215444 -26.926310 -1.362471 7.726267 -33.029145 -8.793431 -0.000001 0.000001 0.000001 -0.029410 5.249321 0.641545 0.463732 -2.501173 21.004223 0.116843 -1.271901 10.497071 -0.000000 0.000000 -0.000002 0.000003 -0.000008 0.000004 0.463733 -2.501210 21.004239 0.116840 -1.271879 10.497043 0.000001 0.000001 -0.000002 -0.066179 -7.858270 -0.963780 0.463734 -2.501189 21.004249 0.116839 -1.271893 10.497044 -0.000003 -0.000000 0.000001 -18.955281 26.402048 27.391893 51.166115 10.193642 1.986518 -12.500821 8.786138 -15.321366 -2.524967 -0.000009 -0.000000 0.000000 0.000000 0.000000 -26.085353 9.892400 -2.252094 45.699484 4.950395 -8.716675 -2.342962 2.136652 13.618043 -4.095710 -0.000000 0.000006 -0.000000 -0.000002 -0.000000 
11.595997 179.103531 -20.252726 -19.749738 -37.114476 -8.998077 35.435295 -3.536477 4.842123 13.905259 -0.112532 3.471587 14.279009 -0.877674 2.675914 11.082579 2.052633 -5.799044 30.244248 4.233430 -13.132891 0.000000 0.000000 -0.000003 0.000000 0.000000 -0.000003 0.000000 0.000000 -0.000003 1.563564 -18.060917 -11.272281 -60.390545 -26.602605 -47.304104 -0.000019 -149.999997 -0.000027 2.604019 7.652944 31.698303 -0.000002 -0.001927 0.015985 1.149040 3.813382 -33.526438 0.292809 1.990307 -16.736089 -0.000001 -0.000001 0.000005 -1.540054 3.690180 6.142351 6.376464 41.437142 2.832540 0.814542 18.278744 4.051079 0.000001 0.000000 -0.000004 -0.022938 -4.659849 -0.563599 1.147979 3.811748 -33.510411 0.292794 1.990313 -16.736088 -0.000001 -0.000000 0.000001 -0.000002 0.000001 0.000005 1.147974 3.811792 -33.510387 0.292825 1.990312 -16.736088 0.000001 0.000001 -0.000001 -0.113275 10.266725 1.273585 1.161294 -0.252013 -33.938916 0.292798 1.990323 -16.736108 0.000000 0.000002 -0.000002 15.665642 32.376087 -19.293073 -67.513941 22.767169 36.720306 0.000004 150.000038 -0.000010 -9.798059 -28.632664 -39.086475 0.000006 -0.000011 0.000008 0.463729 -2.501212 21.004232 0.116839 -1.271886 10.497049 -0.000001 0.000001 -0.000001 -21.411912 13.453873 -6.360348 6.215118 -26.922265 -1.362262 7.726302 -33.029709 -8.793375 0.000001 0.000001 -0.000003 -0.029407 5.249320 0.641543 0.463733 -2.501173 21.004222 0.116840 -1.271904 10.497072 0.000002 0.000002 -0.000003 0.000005 -0.000011 0.000007 0.463737 -2.501208 21.004239 0.116838 -1.271884 10.497044 0.000001 -0.000003 0.000001 -0.066178 -7.858274 -0.963782 0.463735 -2.501190 21.004247 0.116839 -1.271895 10.497043 0.000000 -0.000003 0.000000 -21.717114 28.592196 29.511560 52.532774 10.154314 1.941711 -13.560372 9.115993 -15.394710 -2.483542 0.000002 -0.000007 0.000000 0.000002 0.000000 -29.069545 12.038543 -0.032985 45.172856 6.305521 -8.643931 -0.702344 2.447778 13.792683 -4.529964 0.000002 -0.000002 0.000000 -0.000002 -0.000000 
13.306928 178.510895 -20.171000 -18.017310 -41.556124 -9.076968 36.090487 -4.378922 3.582108 14.836400 -0.196522 3.279428 15.208249 -1.059061 2.394189 11.082580 2.052632 -5.799044 30.244245 4.233429 -13.132894 -0.000001 -0.000001 0.000002 -0.000001 -0.000001 0.000002 -0.000001 -0.000001 0.000002 1.563568 -18.060914 -11.272278 -60.315174 -26.800964 -47.403832 -0.000009 -150.000025 0.000011 2.839936 7.736791 31.674104 -0.000004 -0.001930 0.015986 1.149042 3.813381 -33.526441 0.292813 1.990311 -16.736093 -0.000001 -0.000000 0.000001 -1.540047 3.690177 6.142350 6.376461 41.437146 2.832537 0.814543 18.278746 4.051078 0.000002 -0.000000 -0.000001 -0.022934 -4.659850 -0.563600 1.147985 3.811749 -33.510407 0.292789 1.990314 -16.736091 0.000000 -0.000000 -0.000001 -0.000002 0.000001 0.000005 1.147972 3.811787 -33.510387 0.292822 1.990308 -16.736086 0.000003 -0.000001 0.000001 -0.113271 10.266722 1.273584 1.161297 -0.252016 -33.938920 0.292798 1.990322 -16.736108 0.000000 0.000001 -0.000005 15.665640 32.376090 -19.293071 -67.516618 22.815296 36.742060 0.000008 150.000038 -0.000014 -9.765793 -28.672909 -39.089190 0.000003 -0.000012 0.000007 0.463734 -2.501208 21.004227 0.116837 -1.271891 10.497052 0.000000 -0.000002 0.000002 -21.410924 13.453839 -6.360375 6.214759 -26.917842 -1.362008 7.726291 -33.030334 -8.793349 -0.000001 0.000000 -0.000001 -0.029411 5.249322 0.641545 0.463732 -2.501172 21.004227 0.116840 -1.271905 10.497067 -0.000000 -0.000002 -0.000001 0.000005 -0.000012 0.000006 0.463733 -2.501206 21.004239 0.116839 -1.271886 10.497044 -0.000001 -0.000000 0.000001 -0.066181 -7.858274 -0.963784 0.463735 -2.501188 21.004247 0.116837 -1.271897 10.497046 -0.000003 -0.000003 0.000001 -24.861993 30.489367 31.918085 54.053533 10.096953 1.060828 -14.681746 9.739448 -15.170583 -2.413284 0.000014 -0.000005 0.000000 0.000001 0.000000 -32.634132 13.838754 2.233275 44.669010 8.079429 -8.709747 0.897539 2.664700 14.000522 -5.016133 -0.000004 0.000001 -0.000000 -0.000000 0.000000 
14.640884 178.217438 -19.736048 -16.117107 -44.863182 -8.821017 36.343160 -4.819554 2.951448 15.529133 -0.207580 3.087597 15.884296 -1.149811 2.142962 11.082577 2.052633 -5.799047 30.244245 4.233430 -13.132891 -0.000000 0.000001 0.000000 -0.000000 0.000001 0.000000 -0.000000 0.000001 0.000000 1.563569 -18.060912 -11.272291 -60.238785 -26.936801 -47.471546 0.000003 -150.000011 -0.000030 3.019995 7.777659 31.656387 -0.000001 -0.001928 0.015984 1.149040 3.813383 -33.526434 0.292820 1.990306 -16.736088 -0.000001 0.000001 0.000001 -1.540047 3.690177 6.142351 6.376462 41.437146 2.832538 0.814541 18.278746 4.051080 -0.000001 -0.000000 -0.000001 -0.022935 -4.659848 -0.563599 1.147976 3.811746 -33.510411 0.292789 1.990315 -16.736094 -0.000002 -0.000001 -0.000004 0.000002 0.000002 0.000004 1.147974 3.811786 -33.510380 0.292823 1.990307 -16.736091 0.000001 -0.000000 0.000002 -0.113273 10.266721 1.273585 1.161295 -0.252012 -33.938923 0.292798 1.990321 -16.736105 0.000000 0.000002 -0.000003 15.665638 32.376087 -19.293082 -67.495472 22.849308 36.761588 0.000004 150.000038 -0.000018 -9.718940 -28.689301 -39.085392 -0.000000 -0.000008 0.000008 0.463730 -2.501207 21.004225 0.116839 -1.271888 10.497053 0.000001 0.000001 -0.000000 -21.409872 13.453805 -6.360385 6.214363 -26.913095 -1.361783 7.726331 -33.031010 -8.793276 -0.000002 -0.000000 -0.000001 -0.029411 5.249323 0.641546 0.463727 -2.501172 21.004225 0.116840 -1.271899 10.497071 -0.000001 0.000000 -0.000003 0.000003 -0.000005 0.000002 0.463732 -2.501206 21.004244 0.116836 -1.271885 10.497045 -0.000002 0.000001 0.000001 -0.066182 -7.858271 -0.963781 0.463735 -2.501186 21.004244 0.116835 -1.271897 10.497049 -0.000002 0.000004 -0.000002 -27.558386 31.604781 34.110002 55.243400 10.013168 -0.194130 -15.616159 10.339132 -14.707829 -2.362340 0.000009 -0.000008 -0.000000 -0.000002 -0.000000 -35.423205 14.657123 3.907679 43.718808 8.114559 -8.784278 1.875562 4.418014 13.830846 -5.559027 -0.000005 -0.000009 0.000000 0.000001 0.000000 
